<?xml version="1.0" standalone="no"?>
<!DOCTYPE svg PUBLIC "-//W3C//DTD SVG 20010904//EN"
 "http://www.w3.org/TR/2001/REC-SVG-20010904/DTD/svg10.dtd">
<svg version="1.0" xmlns="http://www.w3.org/2000/svg"
 width="512.000000pt" height="512.000000pt" viewBox="0 0 512.000000 512.000000"
 preserveAspectRatio="xMidYMid meet">
<metadata>
Created by potrace 1.14, written by Peter Selinger 2001-2017
</metadata>
<g transform="translate(0.000000,512.000000) scale(0.100000,-0.100000)"
fill="#000000" stroke="none">
<path d="M295 5106 c-116 -37 -207 -116 -258 -223 l-32 -68 0 -2255 0 -2255
32 -66 c44 -89 117 -163 201 -202 l67 -32 2255 0 2255 0 69 34 c76 37 156 111
187 173 52 101 49 -31 46 2369 l-2 2235 -38 76 c-44 91 -102 146 -197 192
l-65 31 -2240 2 c-1790 1 -2248 -1 -2280 -11z"/>
</g>
</svg>
